<?xml version="1.0"?>
<svg xmlns="http://www.w3.org/2000/svg" width="512" height="512" viewBox="0 0 512 512"><path d="M496,232H453.29A27.75,27.75,0,0,0,456,220v-4a8,8,0,0,0-8-8H336a8,8,0,0,0-8,8v4a27.75,27.75,0,0,0,2.71,12H291.7a31.8,31.8,0,0,0,4.3-16V176a8,8,0,0,0-8-8H272.41c2.51-24.38,16.27-43.74,33.65-47.38C310.59,129.7,322.13,136,336,136c17.03,0,29.3-17.54,30.64-19.54a8.005,8.005,0,0,0,0-8.92,57.754,57.754,0,0,0-8.25-9.42C351.21,91.5,343.46,88,336,88c-14.42,0-26.33,6.81-30.45,16.48-12.93,1.86-24.79,9.31-33.9,21.45C263,137.47,257.7,152.18,256.35,168h-.46c-.76-28.84-5.72-67.98-19.74-82.38a24.848,24.848,0,0,0,3.27-11.51,38.88,38.88,0,0,0-5.84-21.46c-3.84-6.4-10.82-11.24-20.19-13.99a57.918,57.918,0,0,0-12.33-2.23,7.991,7.991,0,0,0-7.65,4.59,57.733,57.733,0,0,0-3.84,11.92c-1.97,9.57-.99,18.01,2.85,24.41A38.942,38.942,0,0,0,208.6,92.6a25.189,25.189,0,0,0,10.78,2.56c.33,0,.67-.02,1-.03a8.028,8.028,0,0,0,3.39.87c1.47.73,6.16,6.22,10.27,22.89,3.36,13.61,5.4,30.81,5.86,49.11H224a8,8,0,0,0-8,8v40a31.8,31.8,0,0,0,4.3,16H181.29A27.75,27.75,0,0,0,184,220v-4a8,8,0,0,0-8-8H64a8,8,0,0,0-8,8v4a27.75,27.75,0,0,0,2.71,12H16a8,8,0,0,0-8,8v24a8,8,0,0,0,8,8H47.36L32.02,471.39A8,8,0,0,0,40,480H64a8.011,8.011,0,0,0,7.95-7.08L95.13,272H408.87l23.18,200.92A8.011,8.011,0,0,0,440,480h24a8,8,0,0,0,7.98-8.61L456.64,272H496a8,8,0,0,0,8-8V240A8,8,0,0,0,496,232ZM336,104c4.92,0,10.15,4.26,13.69,8-3.54,3.75-8.77,8-13.69,8-9.77,0-16-4.74-16-8S326.23,104,336,104ZM223.44,73.35c-.12,2.61-.95,4.61-2.21,5.37s-3.42.54-5.78-.58a23.2,23.2,0,0,1-9.31-9.02c-2.53-4.22-1.57-10.9-.18-15.85,5.03,1.1,11.37,3.4,13.9,7.61a23.728,23.728,0,0,1,3.6,11.76C223.46,72.88,223.45,73.12,223.44,73.35ZM439.31,224A12.014,12.014,0,0,1,428,232H356a12.014,12.014,0,0,1-11.31-8ZM232,184h48v32a16.021,16.021,0,0,1-16,16H248a16.021,16.021,0,0,1-16-16Zm-64.69,40A12.014,12.014,0,0,1,156,232H84a12.014,12.014,0,0,1-11.31-8ZM56.87,464H48.64L63.41,272H79.02Zm390.26,0L424.98,272h15.61l14.77,192ZM488,256H24v-8H488Z"/></svg>
