<svg id="Capa_1" enable-background="new 0 0 512 512" height="512" viewBox="0 0 512 512" width="512" xmlns="http://www.w3.org/2000/svg"><path d="m426.536 83.572c4.142 0 7.5-3.358 7.5-7.5v-48.02c-.001-15.468-12.585-28.052-28.053-28.052h-299.966c-15.468 0-28.052 12.584-28.052 28.053v424.619c0 15.468 12.584 28.053 28.053 28.053h5.239v13.663c0 9.712 7.901 17.613 17.613 17.613h21.273c9.712 0 17.613-7.901 17.613-17.613v-13.663h176.493v13.663c0 9.712 7.901 17.613 17.613 17.613h21.273c9.712 0 17.613-7.901 17.613-17.613v-13.663h5.239c15.468 0 28.053-12.584 28.053-28.053v-341.538c0-4.142-3.357-7.5-7.5-7.5-4.142 0-7.5 3.358-7.5 7.5v61.073h-213.491c-4.142 0-7.5 3.358-7.5 7.5s3.358 7.5 7.5 7.5h213.487v265.466c0 7.197-5.855 13.053-13.053 13.053h-299.966c-7.197 0-13.053-5.856-13.053-13.053v-265.467h77.524c4.142 0 7.5-3.358 7.5-7.5s-3.358-7.5-7.5-7.5h-77.524v-144.153c0-7.197 5.856-13.053 13.053-13.053h299.966c7.198 0 13.053 5.856 13.053 13.053v48.02c0 4.141 3.357 7.499 7.5 7.499zm-273.782 410.815c0 1.441-1.172 2.613-2.613 2.613h-21.273c-1.441 0-2.613-1.172-2.613-2.613v-13.663h26.499zm232.99 0c0 1.441-1.172 2.613-2.613 2.613h-21.273c-1.441 0-2.613-1.172-2.613-2.613v-13.663h26.499z"/><path d="m112.011 58.622v69.962c0 11.713 9.529 21.242 21.242 21.242s21.242-9.529 21.242-21.242v-69.962c0-11.713-9.529-21.242-21.242-21.242s-21.242 9.529-21.242 21.242zm27.485 0v69.962c0 3.442-2.801 6.242-6.243 6.242s-6.243-2.8-6.243-6.242v-69.962c0-3.442 2.801-6.243 6.243-6.243s6.243 2.801 6.243 6.243z"/><path d="m112.011 226.064v69.962c0 11.713 9.529 21.242 21.242 21.242s21.242-9.529 21.242-21.242v-69.962c0-11.713-9.529-21.242-21.242-21.242s-21.242 9.529-21.242 21.242zm27.485 0v69.962c0 3.442-2.801 6.243-6.243 6.243s-6.243-2.801-6.243-6.243v-69.962c0-3.442 2.801-6.243 6.243-6.243s6.243 2.801 6.243 6.243z"/></svg>