<?xml version="1.0"?>
<svg xmlns="http://www.w3.org/2000/svg" xmlns:xlink="http://www.w3.org/1999/xlink" xmlns:svgjs="http://svgjs.com/svgjs" version="1.1" width="512" height="512" x="0" y="0" viewBox="0 0 512.044 512.044" style="enable-background:new 0 0 512 512" xml:space="preserve" class=""><g><g xmlns="http://www.w3.org/2000/svg"><path d="m150.603 473.655-.656 14.133-73.83-30.024c-33.916-13.793-56.096-46.757-56.096-83.37v-291.378c0-44.725 45.303-75.207 86.733-58.359l18.777 7.804c-25.542 7.457-45.509 30.865-45.509 60.555v291.379c0 36.613 22.18 69.577 56.096 83.37zm227.419-376.458c0-32.315 17.515-60.523 43.592-75.574-5.37-1.036-10.916-1.585-16.592-1.585-48.137 0-87 39.023-87 87.16 0 29.131 35.257 79.595 60.938 112.194 13.283 16.862 38.842 16.862 52.125 0 2.522-3.202 5.139-6.581 7.804-10.091-25.676-32.603-60.867-82.999-60.867-112.104z" fill="#cee1f2" data-original="#cee1f2" style="" class=""/><path d="m181.872 512.044c-16.702 0-33.301-3.225-48.937-9.583l-64.351-26.17c-41.65-16.937-68.562-56.934-68.562-101.896v-291.379c0-27.672 13.707-53.415 36.665-68.863 22.957-15.448 51.968-18.448 77.601-8.023.047.02.095.039.142.059l57.564 23.925 81.953-17.052c26.197-4.372 33.894 32.736 8.148 39.161l-88 18.311c-3.939.82-8.034.433-11.75-1.112l-63.191-26.266c-27.591-11.771-59.694 9.869-59.132 39.86v291.379c0 28.612 17.126 54.064 43.63 64.843l64.352 26.17c15.738 6.4 32.887 8.216 49.612 5.248l140.321-29.282c3.941-.825 8.042-.436 11.761 1.109l63.194 26.266c27.591 11.771 59.691-9.871 59.13-39.86v-162.851c1.056-26.536 38.953-26.516 40 0v162.851c0 27.672-13.707 53.415-36.665 68.862-22.958 15.448-51.968 18.448-77.602 8.023-.047-.019-.095-.038-.142-.058l-57.559-23.924s-134.909 28.151-135.089 28.184c-7.662 1.382-15.389 2.068-23.093 2.068zm264.923-280.276c43.282-54.942 65.227-96.854 65.227-124.571-5.875-142.152-208.137-142.132-214 .001 0 27.716 21.946 69.628 65.227 124.57 10.148 12.882 25.374 20.27 41.773 20.27s31.625-7.388 41.773-20.27zm-15.711-12.376h.01zm40.938-112.195c0 13.491-14.881 46.798-56.648 99.818-5.456 6.748-15.239 6.758-20.704 0-41.767-53.02-56.648-86.327-56.648-99.818 0-37.032 30.056-67.16 67-67.16s67 30.129 67 67.16z" fill="#152c5b" data-original="#0023c4" style="" class=""/><path d="m338.022 403.952c-11.046 0-20-8.954-20-20v-95.914c0-11.046 8.954-20 20-20s20 8.954 20 20v95.914c0 11.046-8.954 20-20 20zm-144 8v-283c0-11.046-8.954-20-20-20s-20 8.954-20 20v283c0 11.046 8.954 20 20 20s20-8.954 20-20zm186-306.914c0 13.807 11.193 25 25 25s25-11.193 25-25-11.193-25-25-25-25 11.193-25 25z" fill="#0a58ca" data-original="#ff5cf4" style="" class=""/></g></g></svg>
