<?xml version="1.0"?>
<svg xmlns="http://www.w3.org/2000/svg" xmlns:xlink="http://www.w3.org/1999/xlink" xmlns:svgjs="http://svgjs.com/svgjs" version="1.1" width="512" height="512" x="0" y="0" viewBox="0 0 512.008 512.008" style="enable-background:new 0 0 512 512" xml:space="preserve" class=""><g><g xmlns="http://www.w3.org/2000/svg"><path d="m90.16 207.314c-7.64-15.917-7.459-34.478.49-50.242l54.534-108.643c3.2-6.346 7.45-11.549 12.354-15.656-22.69-20.89-61.651-16.148-76.954 14.198l-54.532 108.643c-7.949 15.764-8.131 34.326-.49 50.242l47.942 99.874 32.94-64.496z" fill="#cee1f2" data-original="#cee1f2" style="" class=""/><path d="m310.899 512h-290.941c-26.536-1.056-26.516-38.953 0-40h290.941c11.021 0 20.649-5.387 26.417-14.779 5.768-9.393 6.215-20.417 1.229-30.246l-188.219-371.028c-5.063-10-14.767-15.957-25.958-15.947-11.193.009-20.885 5.982-25.924 15.976l-54.518 108.61c-5.136 10.185-5.255 22.365-.335 32.616l30.51 63.557 48.691-94.889c3.386-6.598 10.144-10.781 17.559-10.868 7.402-.091 14.273 3.935 17.81 10.452l42.371 78c5.272 9.706 1.679 21.849-8.027 27.121-9.704 5.272-21.849 1.679-27.121-8.027l-24.293-44.721-49.794 97.033c-3.427 6.678-10.301 10.869-17.793 10.869-.089 0-.177 0-.267-.002-7.595-.101-14.478-4.495-17.765-11.343l-47.941-99.873c-10.254-21.362-10.006-46.746.662-67.902l54.517-108.61c11.816-23.43 35.421-37.977 61.624-37.999 26.199-.023 49.834 14.487 61.67 37.864l188.213 371.015c24.317 46.154-11.171 103.927-63.318 103.121zm201.059-20c0-11.046-8.954-20-20-20h-65c-26.536 1.056-26.516 38.953 0 40h65c11.045 0 20-8.954 20-20z" fill="#152c5b" data-original="#0023c4" style="" class=""/><path d="m451.038 378c-.221 0-.44-.003-.662-.011-7.302-.241-13.892-4.444-17.188-10.963l-33.324-65.896-5.097 9.972c-13.016 23.148-46.753 5.884-35.617-18.204l23-45c3.425-6.702 10.328-10.915 17.852-10.898 7.527.016 14.407 4.257 17.805 10.974l34.602 68.42 16.337-27.622c4.586-10.101 4.359-21.961-.645-31.884l-70.101-138.876c-2.752-5.457-7.778-6.049-9.812-6.051-2.048 0-7.058.586-9.817 6.027l-38.576 76.058c-4.996 9.852-17.036 13.786-26.884 8.79-9.851-4.997-13.786-17.033-8.79-26.884l38.57-76.045c8.732-17.248 26.185-27.963 45.529-27.946 19.348.016 36.779 10.757 45.491 28.033l70.101 138.877c10.672 21.165 10.92 46.549.666 67.91-.25.521-36.229 61.4-36.229 61.4-3.607 6.099-10.16 9.819-17.211 9.819z" fill="#0a58ca" data-original="#ff5cf3" style="" class=""/></g></g></svg>
